<svg xmlns="http://www.w3.org/2000/svg" viewBox="0 0 1280 720" role="img" aria-labelledby="title desc">
  <title id="title">AI 产品工作台视觉</title>
  <desc id="desc">深色产品工作台界面，包含需求洞察、Prompt 流程、体验评估与风险提示模块。</desc>
  <defs>
    <linearGradient id="bg" x1="0" y1="0" x2="1" y2="1">
      <stop offset="0" stop-color="#111827" />
      <stop offset="0.55" stop-color="#151a25" />
      <stop offset="1" stop-color="#24182d" />
    </linearGradient>
    <linearGradient id="orangeViolet" x1="0" y1="0" x2="1" y2="1">
      <stop offset="0" stop-color="#ff7a3d" />
      <stop offset="1" stop-color="#8b5cf6" />
    </linearGradient>
    <linearGradient id="mintViolet" x1="0" y1="0" x2="1" y2="1">
      <stop offset="0" stop-color="#4fd1c5" />
      <stop offset="1" stop-color="#8b5cf6" />
    </linearGradient>
    <filter id="softShadow" x="-20%" y="-20%" width="140%" height="140%">
      <feDropShadow dx="0" dy="22" stdDeviation="28" flood-color="#05070d" flood-opacity="0.36" />
    </filter>
  </defs>

  <rect width="1280" height="720" fill="url(#bg)" />
  <g opacity="0.28">
    <path d="M0 120H1280M0 240H1280M0 360H1280M0 480H1280M0 600H1280" stroke="#ffffff" stroke-width="1" />
    <path d="M160 0V720M320 0V720M480 0V720M640 0V720M800 0V720M960 0V720M1120 0V720" stroke="#ffffff" stroke-width="1" />
  </g>

  <g filter="url(#softShadow)">
    <rect x="64" y="58" width="1152" height="604" rx="18" fill="rgba(255,255,255,0.065)" stroke="rgba(255,255,255,0.18)" />
    <rect x="64" y="58" width="1152" height="54" rx="18" fill="#151b27" />
    <circle cx="100" cy="86" r="7" fill="#ff7a3d" />
    <circle cx="124" cy="86" r="7" fill="#f3c969" />
    <circle cx="148" cy="86" r="7" fill="#4fd1c5" />
    <rect x="996" y="78" width="166" height="16" rx="8" fill="rgba(255,255,255,0.12)" />
  </g>

  <g font-family="Inter, PingFang SC, Microsoft YaHei, sans-serif" letter-spacing="0">
    <g filter="url(#softShadow)">
      <rect x="104" y="150" width="314" height="176" rx="12" fill="rgba(255,255,255,0.08)" stroke="rgba(255,255,255,0.16)" />
      <text x="132" y="188" fill="#ff9b6b" font-size="18" font-weight="700">User Insight</text>
      <rect x="132" y="214" width="220" height="10" rx="5" fill="#465064" />
      <rect x="132" y="238" width="168" height="10" rx="5" fill="#343c4d" />
      <rect x="132" y="272" width="86" height="26" rx="8" fill="rgba(255,122,61,0.22)" />
      <rect x="230" y="272" width="92" height="26" rx="8" fill="rgba(139,92,246,0.24)" />
    </g>

    <g filter="url(#softShadow)">
      <rect x="452" y="150" width="374" height="176" rx="12" fill="rgba(255,255,255,0.08)" stroke="rgba(255,255,255,0.16)" />
      <text x="480" y="188" fill="#a78bfa" font-size="18" font-weight="700">Prompt Flow</text>
      <path d="M500 276C574 206 632 312 706 232C736 200 760 196 792 178" fill="none" stroke="url(#orangeViolet)" stroke-width="10" stroke-linecap="round" />
      <circle cx="500" cy="276" r="12" fill="#ff7a3d" />
      <circle cx="706" cy="232" r="12" fill="#8b5cf6" />
      <circle cx="792" cy="178" r="12" fill="#ff7a3d" />
      <rect x="480" y="216" width="88" height="12" rx="6" fill="#343c4d" />
      <rect x="594" y="216" width="58" height="12" rx="6" fill="rgba(255,122,61,0.4)" />
      <rect x="674" y="216" width="80" height="12" rx="6" fill="rgba(139,92,246,0.4)" />
    </g>

    <g filter="url(#softShadow)">
      <rect x="862" y="150" width="314" height="176" rx="12" fill="rgba(255,255,255,0.08)" stroke="rgba(255,255,255,0.16)" />
      <text x="890" y="188" fill="#5eead4" font-size="18" font-weight="700">Trust Signals</text>
      <rect x="890" y="220" width="220" height="10" rx="5" fill="#465064" />
      <rect x="890" y="246" width="174" height="10" rx="5" fill="#343c4d" />
      <rect x="890" y="284" width="72" height="18" rx="9" fill="rgba(79,209,197,0.24)" />
      <rect x="978" y="284" width="72" height="18" rx="9" fill="rgba(255,122,61,0.22)" />
    </g>

    <g filter="url(#softShadow)">
      <rect x="104" y="360" width="456" height="214" rx="12" fill="rgba(255,255,255,0.08)" stroke="rgba(255,255,255,0.16)" />
      <text x="132" y="400" fill="#f7f3ef" font-size="20" font-weight="800">Experience Journey</text>
      <path d="M152 504L252 456L348 496L460 424" fill="none" stroke="url(#mintViolet)" stroke-width="10" stroke-linecap="round" stroke-linejoin="round" />
      <circle cx="152" cy="504" r="13" fill="#ff7a3d" />
      <circle cx="252" cy="456" r="13" fill="#8b5cf6" />
      <circle cx="348" cy="496" r="13" fill="#4fd1c5" />
      <circle cx="460" cy="424" r="13" fill="#ff7a3d" />
      <rect x="132" y="432" width="108" height="70" rx="10" fill="rgba(139,92,246,0.24)" />
      <rect x="158" y="456" width="74" height="10" rx="5" fill="#8b5cf6" />
    </g>

    <g filter="url(#softShadow)">
      <rect x="594" y="360" width="256" height="214" rx="12" fill="rgba(255,255,255,0.08)" stroke="rgba(255,255,255,0.16)" />
      <text x="622" y="400" fill="#f7f3ef" font-size="20" font-weight="800">Decision Board</text>
      <circle cx="656" cy="462" r="34" fill="#ff7a3d" opacity="0.82" />
      <circle cx="724" cy="462" r="34" fill="#8b5cf6" opacity="0.86" />
      <rect x="622" y="520" width="160" height="10" rx="5" fill="#465064" />
      <rect x="622" y="544" width="118" height="10" rx="5" fill="#343c4d" />
    </g>

    <g filter="url(#softShadow)">
      <rect x="884" y="360" width="292" height="214" rx="12" fill="rgba(255,255,255,0.08)" stroke="rgba(255,255,255,0.16)" />
      <text x="912" y="400" fill="#f7f3ef" font-size="20" font-weight="800">Risk &amp; Feedback</text>
      <rect x="912" y="438" width="58" height="72" rx="8" fill="rgba(255,122,61,0.24)" />
      <rect x="986" y="426" width="58" height="84" rx="8" fill="rgba(139,92,246,0.28)" />
      <rect x="1060" y="444" width="58" height="66" rx="8" fill="rgba(79,209,197,0.22)" />
      <rect x="912" y="538" width="190" height="10" rx="5" fill="#465064" />
    </g>

    <rect x="188" y="612" width="904" height="28" rx="14" fill="rgba(255,255,255,0.09)" />
    <rect x="188" y="612" width="310" height="28" rx="14" fill="#ff7a3d" opacity="0.8" />
    <rect x="498" y="612" width="278" height="28" fill="#8b5cf6" opacity="0.82" />
    <rect x="776" y="612" width="146" height="28" fill="#4fd1c5" opacity="0.5" />
  </g>
</svg>
